<?xml version="1.0" encoding="UTF-8"?>
<!DOCTYPE svg PUBLIC "-//W3C//DTD SVG 1.1//EN" "http://www.w3.org/Graphics/SVG/1.1/DTD/svg11.dtd">
<!-- Creator: CorelDRAW X6 -->
<svg xmlns="http://www.w3.org/2000/svg" xml:space="preserve" width="210mm" height="297mm" version="1.1" style="shape-rendering:geometricPrecision; text-rendering:geometricPrecision; image-rendering:optimizeQuality; fill-rule:evenodd; clip-rule:evenodd"
viewBox="0 0 21000 29700"
 xmlns:xlink="http://www.w3.org/1999/xlink">
 <defs>
  <style type="text/css">
   <![CDATA[
    .fil1 {fill:#00A0E3}
    .fil2 {fill:#FFED00}
    .fil0 {fill:#183867;fill-rule:nonzero}
   ]]>
  </style>
 </defs>
 <g id="Layer_x0020_1">
  <metadata id="CorelCorpID_0Corel-Layer"/>
  <path class="fil0" d="M6261 14419c-8,-88 -44,-154 -109,-201 -65,-46 -147,-70 -246,-70 -88,0 -162,19 -224,58 -63,39 -94,92 -94,157 0,50 22,93 65,130 42,36 113,65 213,89 79,19 149,36 207,52 60,15 112,29 157,43 45,13 87,27 122,39 36,13 71,27 103,43 69,32 123,80 162,142 39,63 60,142 60,241 0,92 -19,174 -54,245 -36,72 -85,133 -146,184 -61,50 -132,89 -213,116 -82,27 -169,40 -262,40 -518,0 -783,-200 -795,-599l361 0c2,93 39,166 111,218 72,52 162,79 273,79 46,0 92,-5 136,-16 43,-11 83,-26 116,-46 34,-20 61,-44 80,-73 19,-28 29,-59 29,-92 0,-107 -92,-183 -277,-227 -155,-36 -272,-68 -352,-94 -80,-26 -137,-47 -173,-63 -93,-42 -160,-98 -204,-166 -42,-68 -64,-154 -64,-259 0,-78 14,-150 43,-218 29,-69 72,-127 127,-176 55,-49 124,-89 207,-119 83,-29 177,-43 284,-43 99,0 191,14 277,42 86,28 160,68 224,119 65,50 116,111 153,183 38,73 59,152 63,242l-361 0 1 0zm1127 198c-197,0 -295,144 -295,431 0,113 28,204 83,275 56,72 127,106 214,106 87,0 158,-37 215,-112 57,-75 85,-172 85,-290 0,-273 -101,-411 -303,-411l1 1zm-286 -264l0 166c34,-70 83,-121 142,-153 61,-32 137,-48 230,-48 97,0 182,19 253,59 72,38 132,91 181,156 48,67 85,142 108,228 23,85 34,175 34,267 0,101 -12,193 -36,277 -24,84 -60,156 -106,217 -46,61 -104,108 -172,142 -68,34 -145,51 -233,51 -82,0 -158,-15 -229,-46 -71,-31 -126,-83 -164,-154l0 795 -347 0 0 -1957 338 0 1 0zm1712 261c-213,0 -320,134 -320,402 0,270 107,405 320,405 214,0 321,-134 321,-405 0,-267 -107,-402 -321,-402zm0 -297c105,0 200,16 283,49 84,33 154,80 213,141 59,62 103,135 134,222 30,86 46,182 46,286 0,105 -17,201 -48,287 -32,87 -77,160 -136,221 -59,62 -129,108 -213,142 -83,33 -177,49 -280,49 -106,0 -202,-17 -286,-51 -85,-34 -156,-82 -214,-142 -59,-62 -103,-135 -134,-222 -30,-86 -46,-181 -46,-284 0,-104 17,-200 48,-285 32,-86 77,-159 136,-221 59,-61 130,-108 214,-142 84,-34 179,-51 283,-51l0 1zm1555 361c-33,-6 -65,-9 -96,-9 -216,0 -323,107 -323,321l0 689 -350 0 0 -1327 329 0 0 159c29,-44 60,-80 91,-105 31,-25 63,-44 96,-58 33,-14 67,-22 102,-25 35,-3 70,-5 105,-5l46 0 0 358 0 2zm1159 -76l-731 0 0 547c0,84 16,148 46,194 31,45 83,68 154,68 71,0 122,-22 154,-67 33,-45 49,-109 49,-193l0 -346 327 0 0 381c0,70 -11,136 -31,201 -20,64 -52,120 -96,169 -44,48 -100,88 -168,117 -68,28 -148,43 -241,43 -97,0 -180,-15 -248,-43 -68,-29 -124,-69 -167,-117 -43,-48 -76,-105 -96,-169 -20,-65 -31,-132 -31,-204l0 -1191 346 0 0 358 732 0 0 250 1 2z"/>
  <path class="fil0" d="M968 14673l3429 0c176,0 261,42 255,244 -8,311 -74,608 -186,881 -126,304 -310,577 -539,805 -228,228 -501,413 -805,539 -293,121 -613,187 -949,187 -336,0 -656,-66 -949,-187 -304,-126 -577,-310 -805,-539 -149,-149 -280,-318 -388,-502 -106,-181 -189,-376 -247,-583 -12,-44 17,-88 66,-88l230 0 51 0 16 49c51,165 122,322 210,467 88,147 195,283 316,404 196,196 429,354 689,461 250,103 523,160 812,160 288,0 562,-56 812,-160 259,-108 493,-266 689,-461 183,-183 333,-399 440,-638 93,-211 153,-439 174,-678l-3320 0c-17,-119 -17,-242 0,-360l-1 -1zm1197 1887c-231,0 -451,-47 -652,-129 -210,-87 -397,-214 -554,-371 -157,-156 -284,-345 -371,-554 -83,-201 -129,-421 -129,-652 0,-231 47,-451 129,-652 87,-210 214,-398 371,-555 157,-156 345,-283 554,-370 201,-84 421,-129 652,-129 231,0 452,46 653,129 208,87 397,214 554,370 76,76 145,160 207,251 36,53 70,110 100,168 67,129 34,212 -99,212l-153 0 -42 0 -19 -38c-32,-63 -69,-123 -111,-180 -40,-56 -86,-110 -137,-161 -124,-124 -273,-225 -438,-293 -159,-65 -333,-102 -516,-102 -182,0 -357,37 -515,102 -165,68 -313,168 -438,293 -124,125 -225,274 -293,438 -65,159 -102,333 -102,516 0,183 37,357 102,516 69,164 169,312 293,437 124,124 273,225 438,293 158,65 333,102 515,102 183,0 357,-37 516,-102 165,-68 313,-169 438,-293 100,-100 184,-214 248,-339l19 -38 42 0 170 0c99,0 176,45 87,199 -35,61 -68,124 -106,181 -62,91 -131,174 -207,250 -157,157 -346,284 -554,371 -201,84 -422,129 -653,129l1 1zm-1840 -1526c-144,0 -285,1 -427,1 -142,0 -204,-75 -204,-185 0,-336 66,-656 187,-949 126,-304 310,-577 539,-805 228,-228 501,-413 805,-539 293,-121 613,-187 949,-187 336,0 656,66 949,187 304,126 577,310 805,539 150,150 282,320 390,507 94,160 170,332 226,512 15,51 23,163 -100,163l-174 0 -51 0 -15 -50c-51,-166 -122,-324 -210,-471l0 0c-89,-148 -197,-286 -319,-408 -196,-196 -429,-354 -689,-461 -250,-103 -523,-160 -812,-160 -288,0 -562,56 -812,160 -259,108 -493,265 -689,461 -184,184 -334,400 -441,641 -94,212 -154,441 -174,683l267 0 6 0c-12,119 -12,241 0,360l-6 0 0 1z"/>
  <path class="fil0" d="M12884 14472c-25,-101 -74,-180 -145,-238 -72,-57 -152,-85 -242,-85 -72,0 -135,15 -192,46 -57,31 -104,75 -144,131 -40,56 -71,123 -91,199 -20,77 -31,161 -31,255 0,91 11,175 31,252 20,77 49,142 88,198 37,56 83,99 136,131 53,32 115,48 182,48 111,0 200,-30 268,-90 68,-61 114,-147 139,-259l375 0c-19,103 -51,195 -94,278 -43,83 -98,153 -163,212 -65,60 -140,105 -227,137 -86,32 -181,48 -286,48 -117,0 -225,-20 -326,-59 -101,-40 -189,-100 -264,-178 -75,-79 -133,-177 -175,-293 -42,-116 -63,-251 -63,-405 0,-151 20,-288 59,-408 38,-120 94,-223 165,-307 73,-85 159,-149 262,-193 103,-44 219,-68 347,-68 112,0 213,18 304,51 90,34 168,80 232,139 66,59 118,127 156,205 39,79 64,162 73,252l-375 0 1 1zm1252 553c-35,29 -96,52 -184,70 -120,23 -202,51 -244,83 -43,32 -65,76 -65,133 0,99 52,148 157,148 44,0 88,-7 130,-19 41,-13 78,-32 109,-57 30,-25 55,-58 74,-96 18,-39 28,-84 28,-134 0,-15 0,-36 -1,-64 -1,-27 -3,-49 -5,-65l1 1zm-216 -713c189,0 330,44 424,134 94,89 141,219 141,391l0 838 -326 0c-4,-15 -8,-31 -12,-49 -3,-17 -6,-36 -8,-58 -43,44 -98,78 -167,100 -68,22 -146,33 -235,33 -134,0 -242,-32 -322,-99 -81,-66 -121,-156 -121,-273 0,-91 15,-163 45,-218 30,-54 72,-97 127,-128 54,-31 119,-54 194,-70 75,-16 155,-29 243,-41 70,-9 125,-25 164,-46 40,-21 60,-51 60,-90 0,-51 -23,-89 -70,-114 -46,-25 -98,-38 -154,-38 -63,0 -115,19 -156,54 -41,36 -66,84 -74,145l-335 0c12,-148 63,-263 151,-346 90,-82 233,-124 431,-124l0 -1zm1055 1363l-349 0 0 -1811 349 0 0 1811zm1013 -792c-4,-99 -33,-173 -86,-221 -53,-47 -115,-71 -184,-71 -73,0 -133,25 -184,76 -50,50 -80,122 -88,216l542 0 0 0zm-553 221c5,99 34,179 87,239 52,60 122,90 210,90 57,0 107,-13 151,-40 44,-27 74,-64 88,-108l360 0c-40,136 -112,240 -215,314 -103,75 -225,111 -367,111 -442,0 -664,-240 -664,-722 0,-206 55,-370 167,-492 110,-122 268,-184 474,-184 416,0 624,264 624,792l-914 0 -1 0zm1356 -562c41,-74 95,-131 165,-170 69,-40 157,-60 263,-60 65,0 124,10 176,29 53,19 100,47 139,85 38,36 69,82 91,138 22,56 34,120 34,191l0 920 -352 0 0 -804c0,-103 -17,-172 -51,-208 -34,-35 -92,-54 -176,-54 -183,0 -273,102 -273,306l0 760 -350 0 0 -1327 335 0 0 195 -1 -1zm1637 70c-200,0 -300,137 -300,411 0,119 27,214 81,287 55,73 126,109 216,109 42,0 83,-10 119,-28 37,-19 69,-45 96,-79 27,-34 48,-74 63,-119 14,-46 22,-96 22,-151 0,-287 -99,-431 -297,-431l0 1zm629 1063l-338 0 -5 -162c-80,132 -203,198 -367,198 -97,0 -182,-19 -253,-57 -72,-37 -132,-89 -179,-154 -47,-65 -84,-140 -108,-226 -24,-85 -36,-177 -36,-274 0,-101 12,-193 37,-278 25,-85 62,-157 109,-216 47,-61 105,-107 173,-142 68,-34 144,-51 230,-51 161,0 291,70 388,210l0 -658 349 0 0 1810zm947 -649c-35,29 -97,52 -184,70 -120,23 -202,51 -244,83 -43,32 -65,76 -65,133 0,99 52,148 157,148 44,0 87,-7 130,-19 41,-13 78,-32 109,-57 31,-25 56,-58 75,-96 18,-39 27,-84 27,-134 0,-15 0,-37 -1,-64 0,-27 -2,-49 -4,-65l0 1zm-216 -713c189,0 330,44 424,134 94,89 141,219 141,390l0 839 -326 0c-4,-15 -8,-31 -12,-49 -4,-17 -6,-36 -8,-58 -43,44 -99,78 -167,100 -68,22 -146,33 -236,33 -133,0 -241,-32 -321,-99 -81,-66 -121,-156 -121,-273 0,-91 15,-163 45,-218 30,-54 72,-97 127,-128 55,-31 119,-54 193,-71 75,-15 156,-28 244,-40 70,-10 125,-25 164,-46 40,-21 60,-51 60,-91 0,-50 -23,-88 -70,-113 -46,-25 -98,-38 -154,-38 -63,0 -115,19 -156,54 -41,36 -66,84 -74,145l-335 0c12,-148 63,-263 151,-346 90,-83 233,-124 431,-124l0 -1zm1473 361c-33,-6 -65,-9 -96,-9 -216,0 -323,107 -323,321l0 689 -350 0 0 -1327 329 0 0 159c29,-44 60,-79 91,-104 31,-25 63,-45 96,-59 33,-14 67,-22 102,-25 35,-3 70,-5 105,-5l46 0 0 358 0 2z"/>
  <polygon class="fil0" points="19057,12103 18708,12103 18708,11945 19057,11945 "/>
  <polygon class="fil1" points="21260,12173 18706,12173 18706,12975 21260,12975 "/>
  <polygon class="fil2" points="21260,13775 18706,13775 18706,12975 21260,12975 "/>
 </g>
</svg>
